HIERARCHY
ROOT root
{
	OFFSET	0	13.1	24.9
	CHANNELS 6  Xposition Yposition Zposition Xrotation Yrotation Zrotation
	JOINT spine_1
	{
		OFFSET	0	9.99999	0
		CHANNELS 3  Xrotation Yrotation Zrotation
		JOINT spine_2
		{
			OFFSET	0	112	-10
			CHANNELS 3  Xrotation Yrotation Zrotation
			JOINT spine_3
			{
				OFFSET	0	206.5	19.3
				CHANNELS 3  Xrotation Yrotation Zrotation
				JOINT spine_4
				{
					OFFSET	0	110.4	14.6
					CHANNELS 3  Xrotation Yrotation Zrotation
					JOINT neck_1
					{
						OFFSET	0	71.8	-50.3
						CHANNELS 3  Xrotation Yrotation Zrotation
						JOINT neck_2
						{
							OFFSET	0	86.2	-25.8
							CHANNELS 3  Xrotation Yrotation Zrotation
							JOINT head_ee
							{
								OFFSET	0	179.8	-8.7
								CHANNELS 3  Xrotation Yrotation Zrotation
								End Site
								{
									OFFSET	1	0	0
								}
							}
						}
					}
					JOINT left_clavicle
					{
						OFFSET	-43.2	22.4	-70.8
						CHANNELS 3  Xrotation Yrotation Zrotation
						JOINT left_shoulder
						{
							OFFSET	-93.9	-5.79999	48.7
							CHANNELS 3  Xrotation Yrotation Zrotation
							JOINT left_elbow
							{
								OFFSET	-291.4	-30.8	15.2
								CHANNELS 3  Xrotation Yrotation Zrotation
								JOINT left_lowarm_twist
								{
									OFFSET	-110.7	-3.89999	13.6
									CHANNELS 3  Xrotation Yrotation Zrotation
									JOINT left_hand
									{
										OFFSET	-110.7	-3.89999	13.6
										CHANNELS 3  Xrotation Yrotation Zrotation
										JOINT left_ee
										{
											OFFSET	-80.8	-5.10001	12.1
											CHANNELS 3  Xrotation Yrotation Zrotation
											End Site
											{
												OFFSET	1	0	0
											}
										}
									}
								}
							}
						}
					}
					JOINT right_clavicle
					{
						OFFSET	43.2	22.4	-70.8
						CHANNELS 3  Xrotation Yrotation Zrotation
						JOINT right_shoulder
						{
							OFFSET	93.9	-5.79999	48.7
							CHANNELS 3  Xrotation Yrotation Zrotation
							JOINT right_elbow
							{
								OFFSET	291.4	-30.8	15.2
								CHANNELS 3  Xrotation Yrotation Zrotation
								JOINT right_lowarm_twist
								{
									OFFSET	110.7	-3.89999	13.6
									CHANNELS 3  Xrotation Yrotation Zrotation
									JOINT right_hand
									{
										OFFSET	110.7	-3.89999	13.6
										CHANNELS 3  Xrotation Yrotation Zrotation
										JOINT right_ee
										{
											OFFSET	80.8	-5.10001	12.1
											CHANNELS 3  Xrotation Yrotation Zrotation
											End Site
											{
												OFFSET	1	0	0
											}
										}
									}
								}
							}
						}
					}
				}
			}
		}
	}
	JOINT left_hip
	{
		OFFSET	-82.8	-127.5	0.300001
		CHANNELS 3  Xrotation Yrotation Zrotation
		JOINT left_knee
		{
			OFFSET	-28.2	-396.7	2.2
			CHANNELS 3  Xrotation Yrotation Zrotation
			JOINT left_ankle
			{
				OFFSET	-11.7	-411.3	35.4
				CHANNELS 3  Xrotation Yrotation Zrotation
				JOINT left_toes
				{
					OFFSET	0	-60	-88.6
					CHANNELS 3  Xrotation Yrotation Zrotation
					JOINT left_foot_ee
					{
						OFFSET	-22.5	-16.5	-42.2
						CHANNELS 3  Xrotation Yrotation Zrotation
						End Site
						{
							OFFSET	1	0	0
						}
					}
				}
			}
		}
	}
	JOINT right_hip
	{
		OFFSET	82.8	-127.5	0.300001
		CHANNELS 3  Xrotation Yrotation Zrotation
		JOINT right_knee
		{
			OFFSET	28.2	-396.7	2.2
			CHANNELS 3  Xrotation Yrotation Zrotation
			JOINT right_ankle
			{
				OFFSET	11.7	-411.3	35.4
				CHANNELS 3  Xrotation Yrotation Zrotation
				JOINT right_toes
				{
					OFFSET	0	-60	-88.6
					CHANNELS 3  Xrotation Yrotation Zrotation
					JOINT right_foot_ee
					{
						OFFSET	22.5	-16.5	-42.2
						CHANNELS 3  Xrotation Yrotation Zrotation
						End Site
						{
							OFFSET	1	0	0
						}
					}
				}
			}
		}
	}
}
MOTION
Frames: 15
Frame Time: 0.02
3210.53 717.533 -1373.68 51.4857 84.0885 -52.7436 -3.07797 0.304131 0.639603 -3.07778 0.262816 0.657658 -3.07436 0.0811153 0.703565 -3.075 0.19121 0.681927 -6.89937 19.2158 3.79993 -6.87627 33.0703 7.73003 -0.0 0.0 -0.0 3.63013 24.2281 7.70553 -30.3995 -4.05834 64.4586 1.08257 -28.2026 0.271955 -35.934 -2.52948 3.75361 -2.01102 14.7087 -6.47966 -0.0 0.0 -0.0 13.6928 26.5126 -27.2217 13.0283 21.98 -53.3179 1.15439 29.762 -0.306758 8.74689 -0.225076 1.09358 2.7594 8.41543 -15.2315 0.0 0.0 0.0 -22.0127 36.3067 0.316377 -13.4357 0.316079 2.03296 26.4479 -24.5531 -4.07839 -4.01413 0.0 0.0 -0.0 0.0 -0.0 17.5334 18.8849 -0.374751 -2.14719 -0.0824344 -0.319191 -16.2606 1.35186 -2.47806 -1.73504 0.0 0.0 0.0 0.0 0.0 
3202.41 722.193 -1378.44 56.5343 84.8271 -57.7495 -3.09976 0.216319 0.671463 -3.09952 0.173154 0.683867 -3.09706 -0.0125679 0.705334 -3.09774 0.0989815 0.698468 -6.33851 19.6233 4.08339 -6.23928 33.501 7.92594 -0.0 0.0 -0.0 3.44009 23.8886 7.44408 -30.2057 -4.65933 64.6152 1.1179 -28.9757 0.288864 -35.8589 -2.52191 3.74766 -1.82615 13.2421 -6.02782 -0.0 0.0 -0.0 13.6418 26.9799 -27.0438 12.3921 21.5777 -53.6377 1.15408 29.7554 -0.306604 7.92286 -0.21103 0.989253 2.54504 6.62504 -14.5177 0.0 0.0 0.0 -22.1154 35.89 -0.312461 -12.3321 0.30819 1.86381 25.2469 -26.0899 -3.98902 -4.5843 0.0 0.0 -0.0 0.0 -0.0 17.3541 18.9208 -0.656642 -2.15825 -0.0828281 -0.320842 -15.8969 0.792356 -2.41791 -0.718397 0.0 0.0 0.0 0.0 0.0 
3196.9 719.489 -1381.19 62.3785 84.6841 -63.8978 -3.19418 0.133438 0.645074 -3.19395 0.0921205 0.652257 -3.19257 -0.083547 0.65341 -3.19316 0.0206932 0.658405 -5.45543 19.7031 5.24252 -5.23256 32.5811 8.83728 -0.0 0.0 -0.0 3.40813 22.9898 7.39167 -28.9209 -4.98776 65.7469 1.00912 -26.5594 0.238174 -36.3372 -2.57032 3.78538 -1.88665 15.2083 -5.46224 -0.0 0.0 -0.0 13.8459 27.093 -27.504 12.8552 21.9856 -53.2779 1.08978 28.3615 -0.275376 8.57516 -0.222273 1.07182 2.27729 4.94756 -13.3725 0.0 0.0 0.0 -22.4178 35.5313 -0.678252 -13.655 0.317258 2.06658 26.2793 -25.1101 -4.08076 -3.88552 0.0 0.0 -0.0 0.0 -0.0 17.4828 18.8124 -0.960707 -3.03055 -0.112861 -0.451345 -17.6702 -2.3224 -2.67031 -2.02057 0.0 0.0 0.0 0.0 0.0 
3195.73 719.435 -1384.65 86.774 85.2957 -88.1712 -3.20218 0.0961215 0.699425 -3.20191 0.0514216 0.704124 -3.2009 -0.136612 0.692656 -3.20157 -0.0255079 0.705538 -7.60725 17.4644 5.6646 -7.59917 28.6138 9.35923 -0.0 0.0 -0.0 3.248 23.0533 7.16888 -27.9808 -6.24625 65.2806 1.04192 -27.2992 0.253028 -37.2218 -2.66067 3.85407 -1.74625 15.0752 -4.65382 -0.0 0.0 -0.0 13.3219 26.5765 -26.3523 12.7195 21.9126 -53.2853 1.10942 28.7912 -0.284768 9.20366 -0.232215 1.15149 2.66463 2.91256 -16.926 0.0 0.0 0.0 -21.005 35.1165 -2.75154 -13.9617 0.318692 2.11361 23.4985 -30.7303 -3.97318 -1.87918 0.0 0.0 -0.0 0.0 -0.0 17.322 17.5792 -0.753107 -4.10594 -0.147144 -0.612823 -11.669 -5.46787 -1.7461 0.575227 -0.0 -0.0 0.0 0.0 0.0 
3188.58 719.338 -1387.4 88.4296 84.7486 -89.7451 -3.25038 0.0369147 0.657342 -3.25014 -0.00498753 0.658358 -3.2499 -0.179454 0.633449 -3.25046 -0.0771631 0.65384 -8.49563 16.5182 5.85557 -8.54014 26.8998 9.53577 -0.0 0.0 -0.0 2.71124 23.363 6.43075 -27.2769 -7.10837 65.4855 1.03361 -27.1127 0.249229 -37.0531 -2.64335 3.84107 -1.15797 12.7224 -2.05842 -0.0 0.0 -0.0 13.2822 26.3393 -26.2894 11.9179 21.8159 -53.248 1.16651 30.0207 -0.312801 9.08038 -0.230334 1.13585 2.66444 3.82593 -16.544 0.0 0.0 0.0 -22.5788 35.7134 -2.69845 -12.8706 0.312446 1.94633 22.9464 -30.7621 -3.89505 -1.6928 0.0 0.0 -0.0 0.0 -0.0 16.7929 16.5766 -1.13547 -7.43666 -0.233994 -1.11652 -6.06663 -7.58884 -0.899108 -2.38929 0.0 0.0 0.0 0.0 0.0 
3184.24 722.963 -1387.19 81.9852 84.3686 -82.923 -3.21357 0.367911 0.469537 -3.21352 0.337288 0.491996 -3.21037 0.195097 0.5637 -3.21071 0.281673 0.525816 -8.11308 15.6068 4.24203 -8.16543 26.2285 7.66822 -0.0 0.0 -0.0 2.57893 23.7669 6.26154 -26.9285 -8.24675 66.3357 1.12031 -29.028 0.290032 -37.0254 -2.64051 3.83894 -0.731785 10.4482 -0.353553 -0.0 0.0 -0.0 13.1617 26.3659 -26.0073 10.6967 21.436 -52.9604 1.13589 29.365 -0.297634 8.02987 -0.212939 1.00279 2.77473 3.98055 -17.2554 0.0 0.0 0.0 -22.7616 35.7176 -2.71888 -12.8127 0.312025 1.93744 22.0689 -30.9148 -3.77434 -1.32409 0.0 0.0 -0.0 0.0 -0.0 16.1099 16.0278 -1.70851 -8.00261 -0.245833 -1.20256 -0.871151 -7.88423 -0.127751 -2.67195 0.0 0.0 0.0 0.0 0.0 
3175.99 721.629 -1390.56 80.5907 83.8226 -81.8504 -3.22471 0.47167 0.62853 -3.22459 0.43072 0.657269 -3.21921 0.241368 0.747836 -3.21982 0.356442 0.700335 -9.02636 15.0927 5.05106 -9.10824 24.8763 8.52906 -0.0 0.0 -0.0 2.30803 23.9893 5.90004 -26.2051 -8.17008 66.1527 1.12505 -29.1307 0.292336 -36.5806 -2.59507 3.80442 -0.580736 11.6909 1.13845 -0.0 0.0 -0.0 13.079 26.8353 -25.7584 10.3832 21.6491 -53.5286 1.11617 28.9381 -0.288027 6.81718 -0.189828 0.849608 2.74321 2.30086 -17.7321 0.0 0.0 0.0 -23.4807 35.8458 -2.87043 -13.5688 0.31681 2.05336 23.6694 -31.3716 -4.03238 0.278323 -0.0 -0.0 -0.0 0.0 -0.0 15.521 15.9031 -1.85644 -10.396 -0.286483 -1.56754 2.72816 -8.15179 0.396508 -1.74455 0.0 0.0 0.0 0.0 0.0 
3173.81 727.185 -1391.13 82.5546 84.1823 -83.8265 -3.17795 0.344368 0.635751 -3.17777 0.303217 0.656374 -3.17388 0.119203 0.713131 -3.17452 0.23033 0.685357 -9.39363 14.1838 5.88336 -9.44325 22.6614 9.17681 -0.0 0.0 -0.0 2.26961 24.6635 5.87553 -25.8013 -8.54183 66.4146 1.16657 -30.022 0.312832 -37.2955 -2.66824 3.85973 -0.450371 9.63726 1.10213 -0.0 0.0 -0.0 13.3382 26.0378 -26.4557 9.63687 21.3626 -53.1699 1.14061 29.4665 -0.29995 7.1245 -0.195992 0.888381 2.7901 2.18838 -18.1097 0.0 0.0 0.0 -23.4255 35.8884 -2.91372 -12.0936 0.306056 1.82727 21.8511 -31.9613 -3.79631 -0.0126562 0.0 0.0 -0.0 0.0 -0.0 15.5614 15.2025 -2.04431 -9.42397 -0.271814 -1.41912 -0.578784 -9.83489 -0.0848408 -3.32208 0.0 0.0 0.0 0.0 0.0 
3166.57 729.356 -1390.77 79.2605 83.4228 -80.2413 -3.34227 0.585336 0.489178 -3.3423 0.553023 0.525433 -3.33697 0.392869 0.653885 -3.33723 0.491206 0.583635 -10.4375 13.7273 5.80275 -10.5342 22.0552 9.17992 -0.0 0.0 -0.0 2.1964 24.5335 5.77184 -25.4411 -8.36864 66.9742 1.19802 -30.6863 0.328721 -37.6434 -2.70409 3.88632 -0.1994 8.55862 2.26716 -0.0 0.0 -0.0 13.6159 26.504 -27.0439 9.04179 19.491 -52.5464 1.1758 30.2179 -0.317464 7.61269 -0.205354 0.950039 2.23957 3.83647 -13.5767 0.0 0.0 0.0 -24.2992 35.6648 -2.24395 -12.0302 0.305464 1.81757 22.7306 -31.0646 -3.87939 -0.942183 0.0 0.0 -0.0 0.0 -0.0 14.4117 14.497 -2.60476 -7.70056 -0.239621 -1.15663 0.263917 -11.5498 0.0386559 -2.72274 0.0 0.0 0.0 0.0 0.0 
3166.77 730.002 -1393.39 75.811 83.4839 -76.6424 -3.2507 0.776218 0.413531 -3.25092 0.748331 0.462087 -3.24479 0.599045 0.643949 -3.2447 0.693226 0.541261 -10.2946 13.334 5.77125 -10.3723 21.3035 9.01722 -0.0 0.0 -0.0 2.1071 24.2642 5.63951 -25.3088 -8.17305 67.1959 1.24063 -31.5724 0.350753 -37.6761 -2.70748 3.88881 -0.118688 7.87584 2.50696 -0.0 0.0 -0.0 13.6401 26.8241 -27.0597 8.50693 18.7784 -52.2412 1.17678 30.2387 -0.317958 6.93203 -0.192156 0.864095 1.94155 3.49871 -11.6612 0.0 0.0 0.0 -24.6244 35.4465 -2.29875 -11.8477 0.303697 1.78961 23.9542 -30.3979 -4.02075 -1.30348 0.0 0.0 -0.0 0.0 -0.0 13.5062 13.8924 -3.12154 -3.91753 -0.141356 -0.584486 -2.28222 -11.8307 -0.336277 -3.45873 0.0 0.0 0.0 0.0 0.0 
3162.5 733.947 -1390.36 74.5524 83.4233 -75.208 -3.19686 0.858443 0.324151 -3.19719 0.836077 0.378122 -3.19175 0.706456 0.585601 -3.19136 0.790073 0.466678 -10.6705 13.3345 6.53065 -10.7314 20.8706 9.80911 -0.0 0.0 -0.0 2.35871 24.7457 5.99809 -25.4386 -7.97504 67.3801 1.19683 -30.6614 0.328116 -37.5443 -2.69386 3.87877 0.00527903 7.16114 3.01806 -0.0 0.0 -0.0 13.4296 27.1536 -26.529 7.90339 17.8422 -52.3138 1.15137 29.6975 -0.305263 6.57361 -0.184795 0.8189 1.61453 3.47614 -9.43221 0.0 0.0 0.0 -24.678 35.315 -1.97362 -11.7187 0.302396 1.76987 24.7334 -30.3136 -4.12612 -2.10716 0.0 0.0 -0.0 0.0 -0.0 12.645 13.5362 -3.42053 -2.5603 -0.0969178 -0.380937 -3.73345 -13.1096 -0.552579 -3.69261 0.0 0.0 0.0 0.0 0.0 
3156.23 737.455 -1391.08 77.7803 83.5768 -78.2548 -3.1896 0.667208 0.234769 -3.18981 0.650917 0.27675 -3.18673 0.554687 0.438871 -3.18647 0.617037 0.34576 -11.3109 13.2573 7.17329 -11.3659 20.4289 10.5111 -0.0 0.0 -0.0 2.27842 25.0362 5.90223 -25.3533 -8.07854 67.9939 1.22455 -31.2399 0.342371 -37.3043 -2.66915 3.86041 0.149642 6.06414 3.51123 -0.0 0.0 -0.0 13.3415 26.9199 -26.3548 7.11326 17.9484 -52.9157 1.17335 30.1659 -0.31623 6.33566 -0.179753 0.788923 1.41513 4.07648 -7.82542 0.0 0.0 0.0 -24.9989 34.8445 -2.39658 -11.9012 0.304224 1.79781 25.2965 -30.1196 -4.19392 -2.74015 0.0 0.0 -0.0 0.0 -0.0 12.1348 13.1464 -3.51841 -1.51746 -0.0595001 -0.225268 -4.56334 -14.1191 -0.677528 -3.74178 0.0 0.0 0.0 0.0 0.0 
3153.36 737.866 -1391.83 74.8288 83.7623 -75.4048 -3.15881 0.801245 0.286167 -3.1591 0.781412 0.336575 -3.1546 0.66505 0.530661 -3.15423 0.740511 0.418967 -11.8927 13.1936 7.47398 -11.9552 20.2314 10.8796 -0.0 0.0 -0.0 2.79202 25.2116 6.5901 -24.9774 -7.77401 67.5599 1.15969 -29.8754 0.309397 -37.0443 -2.64245 3.8404 0.224876 5.95839 3.96103 -0.0 0.0 -0.0 13.3005 26.5328 -26.3081 6.81773 17.6522 -53.1812 1.21148 30.9681 -0.335622 6.25402 -0.177994 0.778642 1.22799 4.09377 -6.54821 0.0 0.0 0.0 -25.2983 34.984 -2.40714 -11.3908 0.298887 1.71968 24.6617 -31.023 -4.15488 -3.474 0.0 0.0 -0.0 0.0 -0.0 11.8173 12.9718 -3.56555 -0.666361 -0.0268643 -0.0987316 -4.3114 -14.4063 -0.640142 -3.52297 0.0 0.0 0.0 0.0 0.0 
3149.55 738.64 -1392.29 76.5213 83.7205 -77.0429 -3.16654 0.718174 0.258757 -3.16678 0.700253 0.303934 -3.16313 0.59529 0.477874 -3.16284 0.66329 0.37786 -12.4486 13.0774 7.16102 -12.5503 20.3215 10.6513 -0.0 0.0 -0.0 2.61449 25.401 6.36004 -24.8024 -7.69908 67.8375 1.18014 -30.3097 0.319649 -37.081 -2.64621 3.84323 0.228499 5.82736 3.93144 -0.0 0.0 -0.0 13.2855 26.7195 -26.2501 6.45259 17.3982 -53.1792 1.18424 30.3964 -0.321723 6.04866 -0.173505 0.752793 1.16218 4.59884 -5.8915 0.0 0.0 0.0 -25.7484 34.5181 -2.32188 -10.4038 0.28659 1.56873 22.8251 -30.8706 -3.88305 -4.55642 0.0 0.0 -0.0 0.0 -0.0 11.3633 12.7383 -3.82747 -0.273238 -0.0111547 -0.0404474 -3.66307 -15.5646 -0.54445 -1.15666 0.0 0.0 0.0 0.0 0.0 
3147.54 737.201 -1391.3 76.0418 84.0192 -76.4929 -3.30293 0.708857 0.228055 -3.30316 0.692909 0.272702 -3.29996 0.595376 0.447236 -3.29964 0.658536 0.347593 -12.5332 13.1183 7.9404 -12.5936 19.9219 11.4089 -0.0 0.0 -0.0 2.94091 25.2258 6.78812 -24.6136 -7.6749 67.8804 1.21868 -31.1181 0.339335 -37.0029 -2.6382 3.8372 0.310196 4.86862 4.07798 -0.0 0.0 -0.0 13.2412 26.5158 -26.1729 6.52219 17.7307 -52.9733 1.17912 30.2882 -0.319137 5.94706 -0.17125 0.74001 1.07798 4.57386 -5.33198 0.0 0.0 0.0 -25.7374 34.5213 -2.13254 -10.0707 0.281854 1.51784 24.4821 -31.5317 -4.15799 -4.41507 0.0 0.0 -0.0 0.0 -0.0 11.4241 12.7721 -3.87884 0.370548 0.0154355 0.0547683 -4.00269 -15.8154 -0.595641 -2.93684 0.0 0.0 0.0 0.0 0.0 
